<?xml version='1.0' encoding='iso-8859-1'?>
<!DOCTYPE svg PUBLIC '-//W3C//DTD SVG 1.1//EN' 'http://www.w3.org/Graphics/SVG/1.1/DTD/svg11.dtd'>
<svg version="1.1" xmlns="http://www.w3.org/2000/svg" viewBox="0 0 447.981 447.981" xmlns:xlink="http://www.w3.org/1999/xlink" enable-background="new 0 0 447.981 447.981">
  <path d="m437.926,186.681c0-56.985-46.36-103.346-103.345-103.346-3.046,0-6.085,0.134-9.11,0.401-9.188-47.641-51.197-83.736-101.48-83.736s-92.293,36.095-101.479,83.736c-3.025-0.267-6.064-0.401-9.11-0.401-56.985,0-103.345,46.361-103.345,103.346 0,44.38 28.121,82.312 67.478,96.923l37.901,151.135c1.952,7.784 8.949,13.243 16.975,13.243h185.182c8.025,0 15.022-5.459 16.975-13.243l38.116-151.992c38.181-15.199 65.242-52.531 65.242-96.066zm-322.697,103.345h47.638l10.751,122.956h-27.555l-30.834-122.956zm82.772,0h53.999l-10.752,122.956h-32.497l-10.75-122.956zm105.937,122.955h-27.556l10.752-122.956h47.447c0.064,0 0.128-0.002 0.192-0.002l-30.835,122.958zm30.642-157.955h-221.179c-37.686,0-68.345-30.66-68.345-68.345 0-37.686 30.66-68.346 68.345-68.346 6.691,0 13.329,0.977 19.729,2.903 12.863,3.689 28.132,15.179 35.325,24.935 3.431,4.654 8.729,7.116 14.099,7.116 3.606,0 7.246-1.111 10.371-3.416 7.779-5.735 9.436-16.691 3.7-24.471-10.415-14.126-24.268-25.378-40.153-32.672 5.117-32.661 33.445-57.73 67.519-57.73 35.069,0 64.054,26.548 67.91,60.604 0.284,2.51 0.137,14.705-0.267,17.552-1.653,11.64-6.258,22.559-13.574,32.002-5.919,7.64-4.524,18.633 3.116,24.552 3.189,2.471 6.961,3.667 10.706,3.667 5.227,0 10.397-2.332 13.846-6.783 10.929-14.107 17.855-30.384 20.444-47.73 2.785-0.344 5.591-0.528 8.409-0.528 37.686,0 68.345,30.66 68.345,68.346-5.68434e-14,37.684-30.66,68.344-68.346,68.344z"/>
</svg>
